# xmcd CD database file generated by LOLA_Freedb v0.9beta0
# 
# Track frame offsets:
#      182
#      19332
#      33932
# 
# Disc length: 686 seconds
# 
# Revision: 0 
# Processed by: cddbd v1.5.2PL0 Copyright (c) Steve Scherf et al.
# Submitted via: LOLA_Freedb v0.9beta0
# 
DISCID=1b02ac03
DTITLE=Mark Bender - Maxi CD - Wenn die Sonne tanzt
DYEAR=1996
DGENRE=
TTITLE0=Auch Du bist ein König - Wenn die Sonne tanzt
TTITLE1=Auch Du bist ein König - In deinen Augen
TTITLE2=Auch Du bist ein König - Silberstreif am Horizont
EXTD=
EXTT0=
EXTT1=
EXTT2=
PLAYORDER=
